<svg width="553" height="206" viewBox="0 0 553 206" fill="none" xmlns="http://www.w3.org/2000/svg">
<g opacity="0.2" clip-path="url(#clip0_10_2)">
<path d="M285.4 67.6683L311.7 65.9683C312.3 70.2683 313.4 73.4682 315.2 75.7682C318.1 79.3682 322.1 81.1683 327.4 81.1683C331.3 81.1683 334.4 80.2682 336.5 78.3682C338.5 76.8682 339.7 74.4683 339.7 71.9683C339.7 69.5683 338.6 67.2682 336.7 65.7682C334.7 63.9682 330 62.1683 322.6 60.5683C310.5 57.8683 301.8 54.2683 296.7 49.6683C291.6 45.3683 288.7 39.0682 288.9 32.3682C288.9 27.7682 290.3 23.1682 292.9 19.3682C295.9 15.0682 300 11.6682 304.9 9.76825C310.2 7.46825 317.6 6.26825 326.9 6.26825C338.3 6.26825 347 8.36825 353 12.6682C359 16.8682 362.6 23.6682 363.7 32.9682L337.7 34.4682C337 30.4682 335.6 27.5682 333.3 25.6682C331 23.7682 328 22.8682 324.1 22.8682C320.9 22.8682 318.5 23.5682 316.9 24.8682C315.4 26.0682 314.4 27.8682 314.5 29.8682C314.5 31.3682 315.3 32.7682 316.5 33.6682C317.8 34.8682 320.9 35.9682 325.8 36.9682C337.9 39.5682 346.5 42.1683 351.8 44.8683C357.1 47.5683 360.9 50.8682 363.2 54.7682C365.6 58.7682 366.8 63.3683 366.7 68.0683C366.7 73.6683 365.1 79.2683 361.9 83.9683C358.6 88.8683 354 92.6683 348.6 94.9683C342.9 97.4683 335.7 98.7682 327.1 98.7682C311.9 98.7682 301.4 95.8683 295.5 89.9683C289.6 84.0683 286.1 76.6683 285.4 67.6683ZM6.3 97.2682V7.86825H52.4C60.9 7.86825 67.5 8.56825 72 10.0682C76.4 11.4682 80.3 14.3682 82.9 18.2682C85.8 22.5682 87.2 27.5682 87.1 32.7682C87.4 41.5682 82.9 49.9683 75.2 54.3683C72.2 56.0683 68.9 57.2683 65.5 57.8683C68 58.5683 70.5 59.7683 72.7 61.1683C74.4 62.5683 75.8 64.1682 77.1 65.8682C78.6 67.5682 79.9 69.4683 81 71.4683L94.4 97.3682H63L48.2 69.8682C46.3 66.3682 44.7 64.0683 43.2 62.9683C41.2 61.5683 38.8 60.8683 36.4 60.8683H34V97.1683H6.3V97.2682ZM34 44.0683H45.7C48.2 43.8683 50.6 43.4683 53 42.8683C54.8 42.5683 56.4 41.5683 57.5 40.0683C60.2 36.4683 59.8 31.3682 56.5 28.2682C54.7 26.7682 51.2 25.9682 46.2 25.9682H34V44.0683ZM0 173.868L26.3 172.168C26.9 176.468 28 179.668 29.8 181.968C32.6 185.568 36.7 187.468 42 187.468C45.9 187.468 49 186.568 51.1 184.668C53.1 183.068 54.3 180.768 54.3 178.268C54.3 175.868 53.2 173.568 51.3 172.068C49.3 170.268 44.6 168.468 37.1 166.868C25 164.168 16.3 160.568 11.2 155.968C6.1 151.668 3.2 145.368 3.4 138.668C3.4 134.068 4.8 129.468 7.4 125.668C10.4 121.368 14.5 117.968 19.4 116.068C24.7 113.768 32.1 112.568 41.4 112.568C52.8 112.568 61.5 114.668 67.5 118.968C73.5 123.268 77 129.968 78.1 139.268L52.1 140.768C51.4 136.768 50 133.868 47.7 131.968C45.5 130.068 42.4 129.168 38.5 129.268C35.3 129.268 32.9 129.968 31.3 131.368C29.7 132.568 28.8 134.368 28.9 136.368C28.9 137.868 29.7 139.268 30.9 140.168C32.2 141.368 35.3 142.468 40.2 143.468C52.3 146.068 60.9 148.668 66.2 151.368C71.5 154.068 75.3 157.368 77.6 161.268C80 165.268 81.2 169.868 81.2 174.468C81.2 180.068 79.5 185.568 76.4 190.268C73.1 195.168 68.5 198.968 63.1 201.268C57.4 203.768 50.2 205.068 41.6 205.068C26.4 205.068 15.9 202.168 10 196.268C4.1 190.268 0.8 182.868 0 173.868H0Z" fill="black"/>
<path d="M133 166.868L157.2 174.168C155.9 180.268 153.2 186.068 149.5 191.168C146.1 195.668 141.6 199.168 136.5 201.468C131.3 203.768 124.7 204.968 116.7 204.968C107 204.968 99 203.568 92.9 200.768C86.7 197.968 81.4 192.968 76.9 185.868C72.4 178.768 70.2 169.668 70.2 158.568C70.2 143.768 74.1 132.368 82 124.468C89.9 116.568 101 112.568 115.4 112.568C126.7 112.568 135.5 114.868 142 119.368C148.4 123.968 153.2 130.968 156.4 140.368L132 145.768C131.4 143.668 130.5 141.568 129.3 139.768C127.8 137.668 125.9 136.068 123.6 134.868C121.3 133.668 118.7 133.168 116.1 133.168C109.8 133.168 105 135.668 101.7 140.768C99.2 144.468 97.9 150.368 97.9 158.368C97.9 168.268 99.4 175.068 102.4 178.768C105.4 182.468 109.6 184.268 115.1 184.268C120.4 184.268 124.4 182.768 127.1 179.868C129.8 176.768 131.8 172.468 133 166.868ZM189.5 114.068H217.1V145.368H247.3V114.068H275.1V203.468H247.3V167.268H217.1V203.468H189.5V114.068V114.068Z" fill="black"/>
<path d="M271.3 158.768C271.3 144.168 275.4 132.768 283.5 124.668C291.6 116.568 303 112.468 317.5 112.468C332.4 112.468 343.8 116.468 351.9 124.468C360 132.468 364 143.668 364 158.068C364 168.568 362.2 177.068 358.7 183.768C355.3 190.368 350 195.768 343.5 199.368C336.8 203.068 328.5 204.968 318.6 204.968C308.5 204.968 300.2 203.368 293.6 200.168C286.8 196.768 281.2 191.468 277.5 184.968C273.4 177.968 271.3 169.268 271.3 158.768ZM298.9 158.868C298.9 167.868 300.6 174.368 303.9 178.368C307.2 182.268 311.8 184.268 317.6 184.268C323.5 184.268 328.1 182.368 331.4 178.468C334.7 174.568 336.3 167.668 336.3 157.668C336.3 149.268 334.6 143.068 331.2 139.268C327.8 135.368 323.2 133.468 317.4 133.468C312.3 133.268 307.4 135.468 304 139.368C300.6 143.268 298.9 149.768 298.9 158.868V158.868ZM392.3 158.768C392.3 144.168 396.4 132.768 404.5 124.668C412.6 116.568 424 112.468 438.5 112.468C453.4 112.468 464.9 116.468 472.9 124.468C480.9 132.468 485 143.668 485 158.068C485 168.568 483.2 177.068 479.7 183.768C476.3 190.368 471 195.768 464.5 199.368C457.8 203.068 449.5 204.968 439.6 204.968C429.5 204.968 421.2 203.368 414.6 200.168C407.8 196.768 402.2 191.468 398.5 184.968C394.4 177.968 392.3 169.268 392.3 158.768V158.768ZM419.9 158.868C419.9 167.868 421.6 174.368 424.9 178.368C428.2 182.268 432.8 184.268 438.6 184.268C444.5 184.268 449.1 182.368 452.4 178.468C455.7 174.568 457.3 167.668 457.3 157.668C457.3 149.268 455.6 143.068 452.2 139.268C448.8 135.368 444.2 133.468 438.4 133.468C433.3 133.268 428.3 135.468 425 139.368C421.6 143.268 419.9 149.768 419.9 158.868V158.868Z" fill="black"/>
<path d="M482.1 114.068H509.7V181.468H552.8V203.468H482V114.068H482.1Z" fill="black"/>
<path d="M451.679 108.909C479.466 87.9689 488.035 52.4723 470.817 29.6249C453.6 6.7776 417.117 5.23139 389.329 26.1714C361.542 47.1114 352.973 82.608 370.191 105.455C387.408 128.303 423.891 129.849 451.679 108.909Z" stroke="black" stroke-width="14" stroke-miterlimit="10"/>
<path d="M385.242 59.4235L397.66 50.6264L412.935 72.6191C415.543 76.1379 417.53 79.9081 419.02 84.0553C419.89 87.1971 419.641 90.5902 418.399 93.6064C416.785 97.3766 414.177 100.518 410.7 102.78C406.602 105.671 403.125 107.305 400.144 107.807C397.288 108.31 394.307 107.807 391.575 106.551C388.595 105.043 385.987 102.906 384 100.141L394.68 90.0875C395.549 91.4699 396.667 92.7267 397.909 93.732C398.778 94.3604 399.772 94.7374 400.889 94.7374C401.758 94.7374 402.628 94.3604 403.249 93.8577C404.491 93.1037 405.36 91.5956 405.236 90.0875C404.863 87.9511 403.994 85.8147 402.628 84.1809L385.242 59.4235V59.4235ZM422.497 73.3731L433.798 64.3247C435.04 65.8328 436.655 66.9638 438.393 67.5922C440.877 68.3462 443.485 67.8435 445.596 66.2098C447.086 65.2044 448.328 63.822 448.825 62.0626C449.57 59.8005 448.328 57.2871 446.093 56.533C445.72 56.4073 445.347 56.2817 444.975 56.2817C443.485 56.156 440.877 56.7844 437.027 58.4181C430.694 61.0572 425.726 62.0626 422.001 61.6856C418.399 61.3086 415.046 59.4235 413.059 56.2817C411.569 54.1452 410.824 51.6318 410.7 49.1183C410.7 46.2279 411.445 43.3374 413.059 40.9496C415.419 37.5565 418.275 34.666 421.752 32.4039C426.968 28.7594 431.563 27 435.537 27C439.511 27 443.236 28.8851 446.714 32.7809L435.537 41.7037C433.302 38.8132 429.079 38.1848 426.223 40.4469L425.85 40.824C424.609 41.578 423.739 42.709 423.243 44.0914C422.87 45.0968 423.118 46.2279 423.739 47.1076C424.236 47.7359 424.981 48.2386 425.85 48.2386C426.844 48.3643 428.582 47.8616 431.066 46.7306C437.275 44.0914 441.995 42.5834 445.223 42.0807C447.955 41.578 450.812 41.8293 453.42 42.9604C455.779 43.9658 457.766 45.7252 459.132 47.8616C460.871 50.3751 461.864 53.3912 461.988 56.533C462.113 59.8005 461.243 62.9423 459.505 65.7071C457.269 69.1003 454.413 71.9907 451.06 74.2528C444.23 79.0284 438.641 81.0391 434.171 80.2851C429.328 79.5311 425.354 77.0176 422.497 73.3731V73.3731Z" fill="black"/>
</g>
<defs>
<clipPath id="clip0_10_2">
<rect width="552.8" height="205.3" fill="white"/>
</clipPath>
</defs>
</svg>
