<svg width="24" height="24" viewBox="0 0 24 24" fill="none" xmlns="http://www.w3.org/2000/svg">
<path d="M4.8 5H19.2C19.4451 5 20 5.33988 20 6.25V19.75C20 20.6601 19.4451 21 19.2 21H4.8C4.55487 21 4 20.6601 4 19.75V6.25C4 5.33988 4.55487 5 4.8 5Z" stroke="white" stroke-width="2" stroke-linecap="round" stroke-linejoin="round"/>
<path d="M14 14H19C19.333 14 20 14.4551 20 15.5714V19.4286C20 20.5449 19.333 21 19 21H14C13.667 21 13 20.5449 13 19.4286V15.5714C13 14.4551 13.667 14 14 14Z" stroke="white" stroke-width="2" stroke-linecap="round" stroke-linejoin="round"/>
</svg>
