<svg width="50" height="50" viewBox="0 0 50 50" fill="none" xmlns="http://www.w3.org/2000/svg">
<path d="M24.8375 20.2125C25.95 20.2125 27.0376 20.5424 27.9626 21.1605C28.8876 21.7786 29.6086 22.6571 30.0343 23.6849C30.4601 24.7127 30.5715 25.8437 30.3544 26.9349C30.1374 28.026 29.6017 29.0283 28.815 29.815C28.0283 30.6016 27.0261 31.1374 25.9349 31.3544C24.8438 31.5714 23.7128 31.4601 22.6849 31.0343C21.6571 30.6086 20.7786 29.8876 20.1605 28.9626C19.5424 28.0375 19.2125 26.95 19.2125 25.8375C19.2144 24.3462 19.8076 22.9166 20.8621 21.8621C21.9166 20.8076 23.3463 20.2144 24.8375 20.2125ZM24.8375 17.4C23.1687 17.4 21.5374 17.8948 20.1499 18.822C18.7624 19.7491 17.6809 21.0669 17.0423 22.6086C16.4037 24.1504 16.2366 25.8469 16.5622 27.4836C16.8877 29.1203 17.6913 30.6237 18.8713 31.8037C20.0513 32.9837 21.5547 33.7873 23.1915 34.1129C24.8282 34.4384 26.5247 34.2713 28.0664 33.6327C29.6082 32.9941 30.9259 31.9127 31.853 30.5251C32.7802 29.1376 33.275 27.5063 33.275 25.8375C33.275 23.5997 32.3861 21.4536 30.8037 19.8713C29.2214 18.2889 27.0753 17.4 24.8375 17.4Z" fill="white"/>
<path d="M9.58533 12.5808L11.5738 10.5909L16.5041 15.5213L14.5156 17.5097L9.58533 12.5808Z" fill="white"/>
<path d="M4.8125 24.1008H11.8438V26.9133H4.8125V24.1008Z" fill="white"/>
<path d="M9.58533 38.4333L14.5156 33.503L16.5041 35.4928L11.5738 40.4217L9.58533 38.4333Z" fill="white"/>
<path d="M23.0938 38.1633H25.9062V45.1945H23.0938V38.1633Z" fill="white"/>
<path d="M32.4973 35.4928L34.4858 33.503L39.4161 38.4333L37.4276 40.4217L32.4973 35.4928Z" fill="white"/>
<path d="M37.1562 24.1008H44.1875V26.9133H37.1562V24.1008Z" fill="white"/>
<path d="M32.4973 15.5213L37.4276 10.5909L39.4161 12.5808L34.4858 17.5097L32.4973 15.5213Z" fill="white"/>
<path d="M23.0938 5.81953H25.9062V12.8508H23.0938V5.81953Z" fill="white"/>
</svg>
