<svg width="24" height="24" viewBox="0 0 24 24" fill="none" xmlns="http://www.w3.org/2000/svg">
<path d="M8.00185 16.0676H8H2.5L2.5 7.93243L8 7.93243L8.00185 7.93243C8.60791 7.93131 9.19043 7.7157 9.65423 7.32899C9.65431 7.32892 9.6544 7.32886 9.65448 7.32879L13.5 4.1318L13.5 19.8682L9.65448 16.6712C9.6543 16.6711 9.65413 16.6709 9.65396 16.6708C9.19019 16.2842 8.60779 16.0687 8.00185 16.0676Z" stroke="white" stroke-width="2"/>
<path d="M18.2071 8.79289C17.8166 8.40237 17.1834 8.40237 16.7929 8.79289C16.4024 9.18342 16.4024 9.81658 16.7929 10.2071L18.2071 8.79289ZM21.7929 15.2071C22.1834 15.5976 22.8166 15.5976 23.2071 15.2071C23.5976 14.8166 23.5976 14.1834 23.2071 13.7929L21.7929 15.2071ZM23.2071 10.2071C23.5976 9.81658 23.5976 9.18342 23.2071 8.79289C22.8166 8.40237 22.1834 8.40237 21.7929 8.79289L23.2071 10.2071ZM16.7929 13.7929C16.4024 14.1834 16.4024 14.8166 16.7929 15.2071C17.1834 15.5976 17.8166 15.5976 18.2071 15.2071L16.7929 13.7929ZM16.7929 10.2071L21.7929 15.2071L23.2071 13.7929L18.2071 8.79289L16.7929 10.2071ZM21.7929 8.79289L16.7929 13.7929L18.2071 15.2071L23.2071 10.2071L21.7929 8.79289Z" fill="white"/>
</svg>
