<svg width="24" height="24" viewBox="0 0 24 24" fill="none" xmlns="http://www.w3.org/2000/svg">
<path d="M19 16.5C19.6351 15.9097 20.1387 15.2082 20.482 14.436C20.8252 13.6637 21.0012 12.8359 21 12C21.0011 11.1641 20.825 10.3363 20.4818 9.56407C20.1386 8.79182 19.635 8.09037 19 7.5" stroke="white" stroke-width="2" stroke-linecap="round"/>
<path d="M9.50185 16.0676H9.5H4L4 7.93243L9.5 7.93243L9.50185 7.93243C10.1079 7.93131 10.6904 7.7157 11.1542 7.32899C11.1543 7.32892 11.1544 7.32886 11.1545 7.32879L15 4.1318L15 19.8682L11.1545 16.6712C11.1543 16.6711 11.1541 16.6709 11.154 16.6708C10.6902 16.2842 10.1078 16.0687 9.50185 16.0676Z" stroke="white" stroke-width="2"/>
</svg>
