<?xml version="1.0" standalone="no"?>
<!DOCTYPE svg PUBLIC "-//W3C//DTD SVG 20010904//EN"
 "http://www.w3.org/TR/2001/REC-SVG-20010904/DTD/svg10.dtd">
<svg version="1.0" xmlns="http://www.w3.org/2000/svg"
 width="70.000000pt" height="70.000000pt" viewBox="0 0 70.000000 70.000000"
 preserveAspectRatio="xMidYMid meet">
<metadata>
Created by potrace 1.14, written by Peter Selinger 2001-2017
</metadata>
<g transform="translate(0.000000,70.000000) scale(0.100000,-0.100000)"
fill="#000000" stroke="none">
<path d="M273 599 c-28 -14 -40 -16 -50 -7 -8 6 -35 11 -60 9 -37 -2 -52 -9
-83 -39 -20 -20 -43 -47 -49 -59 -7 -13 -11 -81 -11 -176 l0 -154 33 -37 c17
-20 46 -40 62 -44 17 -5 127 -8 245 -7 239 2 263 7 300 68 17 28 20 51 20 180
0 166 -7 191 -64 226 -25 16 -51 22 -98 22 -40 1 -69 6 -80 16 -26 23 -122 24
-165 2z m310 -70 c45 -20 55 -54 55 -188 0 -68 -5 -137 -10 -153 -20 -56 -31
-58 -281 -58 l-229 0 -28 30 c-29 31 -29 31 -29 163 1 220 -4 216 286 217 132
0 221 -4 236 -11z"/>
<path d="M121 514 c-28 -12 -52 -57 -44 -81 5 -14 93 -18 93 -5 0 10 62 74 85
87 26 16 -98 14 -134 -1z"/>
<path d="M446 513 c31 -22 84 -75 84 -84 0 -5 20 -9 45 -9 43 0 45 1 45 30 0
17 -9 39 -20 50 -23 23 -16 21 -104 24 -59 2 -66 1 -50 -11z"/>
<path d="M300 508 c-130 -36 -178 -198 -87 -297 29 -31 94 -61 134 -61 48 0
118 34 147 72 106 139 -25 333 -194 286z m118 -54 c65 -38 89 -120 54 -184
-71 -129 -272 -74 -259 71 4 53 29 92 72 113 39 20 100 20 133 0z"/>
<path d="M305 441 c-60 -26 -87 -98 -59 -157 15 -31 56 -68 53 -47 -3 19 3 21
32 11 23 -8 27 -13 17 -19 -9 -6 -7 -9 10 -9 80 0 133 94 94 167 -26 49 -98
75 -147 54z m103 -34 c3 -15 -2 -18 -25 -15 -17 2 -29 10 -31 21 -3 15 2 18
25 15 17 -2 29 -10 31 -21z"/>
<path d="M560 180 c0 -13 7 -20 20 -20 13 0 20 7 20 20 0 13 -7 20 -20 20 -13
0 -20 -7 -20 -20z"/>
</g>
</svg>
