<svg width="50" height="50" viewBox="0 0 50 50" fill="none" xmlns="http://www.w3.org/2000/svg">
<path d="M26.4528 45C20.7066 45 15.315 42.8174 11.271 38.8545C7.22701 34.8915 5 29.6074 5 23.9761C4.99914 20.0913 6.09674 16.2823 8.17098 12.9718C10.2452 9.66132 13.2149 6.97886 16.7505 5.22217C17.1143 5.04045 17.5246 4.96775 17.9302 5.01316C18.3359 5.05856 18.7189 5.22004 19.0315 5.47745C19.344 5.73486 19.5723 6.07679 19.6878 6.46057C19.8033 6.84434 19.8009 7.25294 19.6809 7.63538C18.672 10.829 18.5728 14.232 19.3941 17.4768C20.2154 20.7216 21.9259 23.6847 24.3408 26.046C26.0739 27.757 28.136 29.1141 30.4078 30.0388C32.6796 30.9635 35.116 31.4374 37.576 31.433C39.4579 31.4345 41.3292 31.1578 43.1269 30.6125C43.5172 30.4948 43.9342 30.4924 44.3258 30.6056C44.7175 30.7188 45.0665 30.9425 45.3291 31.2488C45.5918 31.5552 45.7566 31.9306 45.8029 32.3282C45.8492 32.7257 45.775 33.1279 45.5895 33.4843C43.7969 36.9492 41.0597 39.8596 37.6817 41.8923C34.3036 43.9251 30.4169 45.0008 26.4528 45V45ZM16.6763 8.31431C13.9346 9.94908 11.6699 12.2496 10.1011 14.9933C8.53225 17.737 7.71252 20.831 7.72115 23.9761C7.72115 34.0982 16.1241 42.3333 26.4528 42.3333C29.6621 42.3418 32.8193 41.5384 35.619 40.001C38.4187 38.4636 40.7662 36.2441 42.4343 33.5573C40.8413 33.9186 39.2114 34.1007 37.5762 34.1C34.7587 34.1053 31.9682 33.5628 29.3661 32.5041C26.764 31.4453 24.4021 29.8913 22.417 27.9319C19.8381 25.4094 17.9578 22.2845 16.9533 18.8522C15.9489 15.4199 15.8536 11.7933 16.6763 8.31481V8.31431Z" fill="#1C1C1C"/>
</svg>
